<?xml version="1.0" encoding="UTF-8"?>
<svg id="_レイヤー_1" data-name="レイヤー 1" xmlns="http://www.w3.org/2000/svg" viewBox="0 0 106.24 24.33">
  <defs>
    <style>
      .cls-1 {
        fill: #ff8a16;
      }
    </style>
  </defs>
  <path class="cls-1" d="M6.87,20.79c2.59-2.3,4.07-4.04,5.42-6.34l-12.22.04-.07-4.14,17.92-.04v5.6c-3.58,3.97-5.74,5.81-8.29,7.61l-2.76-2.73ZM1.35,8.43l-.07-4.21,15.55-.03.07,4.21-15.55.04Z"/>
  <path class="cls-1" d="M31.63,4.92l10.52-.04c-.5,8.61-1.42,13.7-3.05,18.59l-4.18-.92c1.03-4.68,1.38-8.82,1.63-13.46l-5.63.04-1.31,7.58-4.6-.39,1.06-13,5.77.35-.21,1.24Z"/>
  <path class="cls-1" d="M49.23,3.61h4.53v13.95c2.73-.67,4.29-1.17,7.61-2.62l1.91,3.79c-4.57,2.55-8.85,4-14.06,4.64V3.61Z"/>
  <path class="cls-1" d="M75.69,11.44l-.07,1.95c-.18,4.18,1.13,6.13,5.17,6.13,1.31,0,2.9-.21,4.82-.6l.71,3.79c-2.09.42-4.39.81-6.59.81-4.96,0-9.35-2.02-9.35-10.13V3.61l5.63-.18-.14,3.79,11.23-.03.07,4.21-11.47.04ZM89.11,2.9c0,1.66-1.27,2.94-2.9,2.94s-2.94-1.27-2.94-2.94,1.27-2.9,2.94-2.9,2.9,1.27,2.9,2.9ZM87.02,2.94c0-.42-.39-.81-.81-.81-.5,0-.88.39-.88.81,0,.46.39.85.88.85.42,0,.81-.39.81-.85Z"/>
  <path class="cls-1" d="M93,22.41l1.76-4,4.36,1.91-1.76,4-4.36-1.91ZM95.67,16.63l5.6-13.83,4.97,2.18-6.39,13.48-4.18-1.83Z"/>
</svg>